<?xml version="1.0" encoding="UTF-8"?>
<svg width="89px" height="90px" viewBox="0 0 89 90" version="1.1" xmlns="http://www.w3.org/2000/svg" xmlns:xlink="http://www.w3.org/1999/xlink">
    <!-- Generator: Sketch 49 (51002) - http://www.bohemiancoding.com/sketch -->
    <title>gumwork-about-circle</title>
    <desc>Created with Sketch.</desc>
    <defs></defs>
    <g id="Page-1" stroke="none" stroke-width="1" fill="none" fill-rule="evenodd">
        <g id="gumwork-about-circle" fill="#FFFFFF" fill-rule="nonzero">
            <path d="M1.1,51.8727273 C1.18705491,52.1041589 1.30122104,52.323944 1.44,52.5272727 C1.39123178,52.2799489 1.27308754,52.0525054 1.1,51.8727273 Z" id="Shape"></path>
            <polygon id="Shape" points="23.92 4.96022727 24.17 4.82727273 24.02 4.82727273"></polygon>
            <path d="M24,4.85795455 L24.37,4.48977273 C23.75,4.86818182 23.81,4.89886364 24,4.85795455 Z" id="Shape"></path>
            <path d="M4.11,56.3318182 C4.32696966,56.7781508 4.59920603,57.1940674 4.92,57.5693182 L4.11,56.3318182 Z" id="Shape"></path>
            <path d="M4,50.8806818 C4.02963722,50.7632886 4.02963722,50.6401205 4,50.5227273 C3.98245115,50.6413705 3.98245115,50.7620386 4,50.8806818 Z" id="Shape"></path>
            <path d="M34.08,88.2511364 L33.83,88.3329545 C33.9200736,88.3360435 34.0084134,88.3071323 34.08,88.2511364 Z" id="Shape"></path>
            <path d="M38.08,88.3636364 C38.3727401,88.4362639 38.6701554,88.4875293 38.97,88.5170455 L39.03,88.4454545 C38.89,88.3125 38.35,88.3431818 38.08,88.3636364 Z" id="Shape"></path>
            <path d="M36.61,87.6170455 L37.4,87.6988636 C37.1394648,87.6483539 36.875147,87.6209792 36.61,87.6170455 Z" id="Shape"></path>
            <path d="M59.91,79.8340909 L59.83,79.3840909 C59.8099781,79.5389567 59.8379581,79.6963445 59.91,79.8340909 Z" id="Shape"></path>
            <path d="M33.11,88.4659091 C33.3538733,88.4473637 33.5951839,88.4028035 33.83,88.3329545 C33.46,88.3329545 32.88,88.2102273 33.11,88.4659091 Z" id="Shape"></path>
            <path d="M1,51.7704545 L1.14,51.8727273 C1,51.75 1,51.6784091 1,51.7704545 Z" id="Shape"></path>
            <path d="M5.26,59.6965909 L5.26,59.625 C5.12,59.3181818 5.16,59.4511364 5.26,59.6965909 Z" id="Shape"></path>
            <path d="M43.69,0 L45.24,0 C44.05,0 43.69,0 43.69,0 Z" id="Shape"></path>
            <path d="M21.05,81.8181818 C21.1,80.6011364 22.8,82.8409091 23.16,81.9102273 C22.16,81.5522727 21.41,81.2659091 21.29,80.5397727 C22.29,80.5397727 23.07,81.7568182 23.85,81.1636364 C23.35,81.0306818 22.85,80.8261364 22.38,80.6625 C21.76,79.7625 23.25,79.875 22.45,79.4659091 C22.0034302,79.5343192 21.5478554,79.4323973 21.17,79.1795455 C20.7085958,78.9176487 20.2983968,78.5709366 19.96,78.1568182 C19.3873699,77.3460239 18.7151935,76.6138864 17.96,75.9784091 L18.43,76.1931818 C18.21,75.9068182 17.97,75.6306818 17.76,75.3340909 L17.15,74.4136364 C17.15,74.4136364 17.15,74.4136364 17.15,74.3522727 C17.0787109,74.3759511 17.0112952,74.410425 16.95,74.4545455 C16.4386044,73.1016124 15.6111981,71.897254 14.54,70.9465909 C14.1568856,70.8258922 13.811857,70.603584 13.54,70.3022727 C13.0501213,69.8725951 12.6044717,69.3928288 12.21,68.8704545 C11.5867724,67.9706311 10.8428082,67.1650013 10,66.4772727 C10.5740728,66.9975102 11.0399773,67.6305157 11.37,68.3386364 L10.7,68.6659091 C9.7,67.2954545 11.19,68.175 9.87,67.1318182 C9.24,67.9397727 11.26,69.0340909 11.87,70.0363636 C11.3187243,69.7665381 10.8204884,69.3956343 10.4,68.9420455 L11.4,70.4147727 C11.75,70.875 12.13,71.3045455 12.5,71.7034091 C13.1523484,72.4842783 14.0260429,73.03828 15,73.2886364 C15.34,73.9125 14.81,74.0147727 14.36,73.7386364 C16.05,74.4852273 14.89,75.0579545 16.36,75.6511364 C15.85,75.8556818 15.1,75.3238636 14.29,74.6284091 C13.5610375,73.9586008 12.7965456,73.330376 12,72.7465909 C11.731893,72.1780101 11.3960063,71.6455534 11,71.1613636 C10.62,70.65 10.24,70.1386364 9.8,69.6068182 C9.36,69.075 8.9,68.5840909 8.45,68.0727273 C8.02797328,67.5712498 7.64354857,67.0379175 7.3,66.4772727 C7.81,66.0375 9.18,67.2340909 9,66.1704545 C8.16,63.8488636 7.4,64.3090909 6.46,63.225 C5.92,61.5272727 7.35,62.55 6.2,60.075 L7.28,61.3636364 C7.45,59.5738636 6.28,60.2079545 6.01,59.0113636 C5.93,59.4613636 5.69,59.5738636 6.31,60.7909091 C6.08,61.0568182 5.48,60.1670455 5.31,59.7068182 C5.33731115,59.8143886 5.37070057,59.9202483 5.41,60.0238636 C4.79,59.6556818 4.31,59.6454545 3.92,57.8863636 C4.78,58.7454545 3.81,56.4238636 3.92,55.9431818 C3.9961811,56.0806858 4.07963838,56.2138381 4.17,56.3420455 C3.62,55.1761364 3.42,53.8465909 3.11,53.0795455 L3.25,53.0795455 C3.03140053,52.7130435 2.77674375,52.3703535 2.49,52.0568182 C2.18984979,51.6098892 2.01992919,51.0849953 2,50.5431818 C2.27,50.6556818 3.18,52.1795455 2.84,50.6659091 C3.04,50.7375 3.21,51.1977273 3.35,51.8113636 C3.55624402,52.4795949 3.71006474,53.1635802 3.81,53.8568182 C3.6,52.4659091 4.03,51.6886364 4.49,53.2943182 C4.87,52.7318182 3.83,51.8318182 3.96,50.8909091 C3.84,51.075 3.64,50.8295455 3.51,50.8909091 C4.13,50.7272727 3.05,47.6386364 2.61,47.6181818 L3.21,49.2238636 C2.72,49.4284091 2.08,47.3829545 1.9,48.0784091 C2.15199184,47.2072982 2.15199184,46.2802018 1.9,45.4090909 C1.74,44.2738636 1.53,43.1181818 1.9,42.6886364 L1.47,43.2920455 C1.61752627,41.6326572 1.64092765,39.9641695 1.54,38.3011364 C1.54,37.4829545 1.59,36.6647727 1.61,35.8261364 L1.68,34.5375 C1.74,34.1079545 1.83,33.6681818 1.92,33.2284091 C1.91083934,33.7527722 1.98860636,34.2749331 2.15,34.7727273 C2.29244463,35.4722025 2.24048197,36.1984988 2,36.8693182 C2.66,33.5965909 2.92,36.0409091 3.45,35.1102273 C4.29,32.7272727 3.06,33.6579545 3,32.8295455 L2.7,34.6090909 C2.66997202,33.025341 2.98063257,31.4541931 3.61,30.0068182 C4.33,28.3090909 5.04,26.4579545 5.61,24.7602273 C5.92,24.6170455 5.41,25.4761364 5.28,25.9465909 C6.39,24.6886364 5.9,24.5454545 6.17,23.5227273 C6.5215184,22.8222129 6.96199685,22.1722703 7.48,21.5897727 C7.88,21.1602273 8.15,21.0477273 8.11,21.5897727 C9.11,20.1068182 7.75,21.5897727 8.11,20.6795455 L8.38,20.4545455 C8.54610793,19.8107125 8.75321674,19.1786814 9,18.5625 C9.53,17.9795455 10.14,17.3352273 10.71,16.8136364 C10.9628753,16.5688953 11.2300325,16.3400661 11.51,16.1284091 C11.7306017,15.9834913 11.9694598,15.8699496 12.22,15.7909091 C13.39,14.4 13.41,13.9806818 13.34,13.6431818 C13.27,13.3056818 13.08,13.0090909 14.02,12.0170455 C15.3,11.1681818 14.02,12.4670455 14.02,12.6920455 L15.73,11.0454545 C15.44,12.0068182 13.88,13.0909091 14.41,13.4488636 C14.7997029,12.7315361 15.3070936,12.0880724 15.91,11.5465909 L17.98,9.50113636 L17.82,9.5625 C18.3851116,8.89416484 19.0379763,8.30906476 19.76,7.82386364 C20.59,7.23068182 21.56,6.80113636 22.19,6.31022727 C21.78,6.85227273 20.29,7.69090909 19.48,8.49886364 C20.94,7.56818182 24.57,5.21590909 25.77,4.22386364 C26.23,4.05 26.96,3.75340909 27.42,3.63068182 C27.88,3.50795455 28.09,3.55909091 27.42,3.89659091 C30.71,2.77159091 28.55,2.76136364 31.47,1.9125 L31.47,2.26022727 C32.2837884,2.15580741 33.0891935,1.99174903 33.88,1.76931818 C34.66,1.54431818 35.43,1.28863636 36.21,1.14545455 C37.7473105,0.700844509 39.3436754,0.507550273 40.94,0.572727273 L41.11,0.214772727 C41.79,0.3375 43.18,0.3375 43.44,0.45 L41.85,0.644318182 C43.19,0.879545455 43.42,0.235227273 45.06,0.552272727 C45.06,0.460227273 43.69,0.153409091 43.69,0.0409090909 L41.17,0.194318182 C40.3307052,0.209475138 39.4928211,0.270928069 38.66,0.378409091 C36.9796298,0.549974481 35.3102348,0.819733538 33.66,1.18636364 L31.19,1.76931818 C30.38,2.025 29.59,2.33181818 28.79,2.61818182 C27.1794969,3.19730313 25.6286783,3.93723819 24.16,4.82727273 C24.42,4.75568182 24.72,4.67386364 24.6,4.82727273 C24.1884948,4.97605182 23.7875389,5.15374818 23.4,5.35909091 C23.04,5.56363636 22.78,5.68636364 22.81,5.52272727 L23.01,5.36931818 C22.2988292,5.83534713 21.5412407,6.22275036 20.75,6.525 L19.75,6.93409091 C19.4799384,7.07276702 19.2193451,7.22994302 18.97,7.40454545 C18.58,8.08977273 15.87,9.55227273 16.86,9.45 C16.474571,9.59943591 16.0973503,9.77014116 15.73,9.96136364 C15.57,10.3909091 15.89,10.4625 15.42,11.0352273 C14.48,11.8431818 14.3,11.6897727 14.93,10.9227273 L13.53,12.1090909 C13.07,12.5284091 12.65,12.9988636 12.2,13.4590909 C11.277277,14.3834127 10.4248063,15.3783418 9.65,16.4352273 C8.06984587,18.4938588 6.70881946,20.7189359 5.59,23.0727273 C5.68407924,22.6293385 5.80429882,22.1921765 5.95,21.7636364 C5.2,22.725 4.51,25.9056818 4.23,24.6272727 C3.78,25.7727273 3.23,27.3272727 2.7,28.6261364 C2.17,29.925 1.99,31.0193182 2.4,31.2238636 C2.02871004,31.665551 1.74357337,32.1758808 1.56,32.7272727 C1.27002724,33.4490929 1.06849623,34.2048341 0.96,34.9772727 C0.675469895,36.7527464 0.52170424,38.5475653 0.5,40.3465909 C0.92,40.0909091 0.93,40.7863636 0.88,41.6556818 C0.760071347,42.4500259 0.800914914,43.2610956 1,44.0386364 C0.71,44.2738636 0.45,43.5784091 0.39,42.7909091 C0.33,42.0034091 0.2,41.1647727 0,41.1238636 C0.0912032189,41.5993566 0.144710474,42.081606 0.16,42.5659091 L0.16,43.3534091 L0.16,44.1715909 C0.16,45.2659091 0.16,46.4215909 0.16,47.5261364 C0.28,49.7147727 0.57,51.6170455 1.51,52.2204545 C1.51,52.6397727 1.51,52.6602273 1.37,52.5272727 C1.52,53.1818182 1.44,54.1227273 1.52,54.7977273 C1.91,55.1045455 1.71,53.6625 2.19,55.1863636 C2.43,56.4443182 1.79,55.8818182 1.7,56.4647727 C2.31,57.5897727 3,59.0113636 3.6,60.2181818 C4.2,61.425 4.95,62.2636364 5.36,62.2636364 C5.48,63 5.42,63.8897727 4.96,63.225 C5.22,63.6340909 5.45,63.9920455 5.64,64.3090909 L6.19,65.1375 C6.46124284,65.5694186 6.70830651,66.0167283 6.93,66.4772727 C7.14,66.8965909 7.35,67.3159091 7.65,67.8375 C8.06441725,68.4781299 8.53287191,69.0804288 9.05,69.6375 C8.26,68.5329545 7.93,69.6375 7.15,67.7352273 C7.05,68.7579545 8.04,69.9238636 9.15,71.2636364 C9.67,71.9488636 10.34,72.5727273 10.94,73.2272727 C11.5239496,73.8554548 12.0464359,74.540533 12.5,75.2727273 L13.92,75.6102273 C15.33,76.7659091 15,77.4102273 13.8,76.7045455 C14.31,77.3488636 14.8,77.9011364 15.26,78.3818182 C15.7233477,78.7906107 16.2109428,79.1697417 16.72,79.5170455 L18.12,80.4784091 L18.83,80.9795455 L19.6,81.45 C19.67,81.6136364 19.49,81.6852273 19.16,81.45 L22.16,83.4954545 C22.57,83.4954545 23.92,83.7306818 23.9,83.1579545 C23.5365083,83.2819403 23.1434917,83.2819403 22.78,83.1579545 C22.1270535,82.8250021 21.5403983,82.3706758 21.05,81.8181818 Z" id="Shape"></path>
            <path d="M23.94,83.0556818 L24.07,83.0556818 L23.94,82.9943182 C24,82.9943182 23.94,83.0147727 23.94,83.0556818 Z" id="Shape"></path>
            <path d="M6,58.1318182 C5.95263359,58.4195663 5.95263359,58.7133883 6,59.0011364 C6.04932068,58.7135588 6.04932068,58.4193958 6,58.1318182 Z" id="Shape"></path>
            <path d="M55.76,84.7431818 C54.95,83.4545455 53.82,85.4897727 52.27,85.4897727 C53.59,84.9272727 53.05,84.2011364 52.8,83.8329545 C52.18,84.9886364 51.62,84.9681818 50.88,84.8556818 C49.8371259,84.5539862 48.7328741,84.5539862 47.69,84.8556818 C47.58,84.3136364 49.03,83.9556818 49.11,83.2806818 C48.71,83.4647727 48.26,83.6488636 47.79,83.8227273 C47.32,83.9965909 46.84,84.0886364 46.4,84.2420455 C45.51,84.5386364 44.77,84.8863636 44.58,85.3977273 C43.9132452,85.4450843 43.243608,85.4279629 42.58,85.3465909 L40.81,85.1625 C39.7,85.0909091 38.81,84.8761364 37.88,84.8147727 C40.01,84.7329545 38.4,83.9454545 39.97,83.2909091 C38.4179896,83.8404994 36.8117177,84.2143258 35.18,84.4056818 C33.25,84.5488636 31.07,84.7431818 29.34,84.6920455 C29.29,83.5977273 29.21,83.4545455 29.88,82.7284091 C26.82,80.8772727 28.55,83.3113636 25.59,81.5625 L26.93,82.4215909 C25.37,81.9818182 24.87,82.7693182 24.12,83.1068182 C25.3656049,83.7390216 26.6480221,84.2923373 27.96,84.7636364 C27.83,85.0602273 27.14,84.9886364 26.42,84.7636364 C25.7,84.5386364 24.94,84.1295455 24.54,84.0272727 C23.06,84.1704545 26.36,85.6022727 25.69,85.9704545 C26.45,85.7863636 28,86.5227273 29.08,86.7170455 L29.14,87.1363636 C29.5327179,87.3915907 29.960882,87.5846783 30.41,87.7090909 C30.805927,87.7843448 31.2073426,87.8253986 31.61,87.8318182 C32.4085256,87.7684261 33.211699,87.8096693 34,87.9545455 C34.13,88.0977273 34.14,88.1795455 34.1,88.2409091 C34.8934102,87.858707 35.753701,87.6430934 36.63,87.6068182 L35.8,87.5045455 C36.63,87.1875 37.97,87.0238636 38.8,86.7579545 C39.22,86.6352273 39.51,86.4715909 39.56,86.2465909 C39.61,86.0215909 39.41,85.8068182 38.86,85.4590909 C39.5192025,85.6070192 40.1873714,85.7095223 40.86,85.7659091 L42.86,86.0215909 C42.2655154,87.6440926 40.688078,88.6638914 39,88.5170455 L38.67,88.8954545 C39.7114579,89.2737969 40.8485421,89.2737969 41.89,88.8954545 C42.89,88.5681818 43.38,88.0261364 42.79,87.5454545 C43.73,86.4102273 45.26,86.2159091 47,86.3181818 C47.8815244,86.3999452 48.7684756,86.3999452 49.65,86.3181818 C50.4713723,86.2379595 51.2695846,85.9947903 52,85.6022727 C52.36,86.2772727 50.73,86.8090909 50,87.4022727 C49.08,87.6170455 48.41,87.7295455 48.28,87.1568182 C46.28,87.4943182 46.54,87.9954545 46.72,88.4761364 C46.9,88.9568182 47.02,89.3352273 44.72,89.2840909 C42.46,89.0181818 47.43,88.0772727 44.13,88.1079545 C43.3555908,88.748887 42.5477358,89.3463567 41.71,89.8977273 C43.6236004,89.9479075 45.5356566,89.7485759 47.4,89.3045455 C52,88.2818182 55.81,87.3204545 58.49,86.4511364 C59.82,86.0113636 60.94,85.7863636 61.66,85.5204545 C62.38,85.2545455 62.79,85.1522727 62.79,85.1522727 C69.0743937,82.1625971 74.5955803,77.7236788 78.92,72.1840909 C83.1924342,66.6380016 86.1775046,60.171981 87.65,53.2738636 C87.7561917,52.7756097 87.8230735,52.2694361 87.85,51.7602273 L88,50.4613636 C88.0607318,49.78096 88.0607318,49.0963127 88,48.4159091 C87.7875035,47.184445 87.0560453,46.110947 86,45.4806818 C85.7394631,46.0756866 85.5643217,46.7060579 85.48,47.3522727 C85.34,47.9659091 85.08,48.375 84.74,47.8840909 C85.57,48.4056818 85.83,50.0522727 85.4,52.1897727 C84.53,52.1897727 85.28,50.1443182 85,50.6659091 L84.88,51.0545455 C84.4422861,50.7575213 84.2184351,50.2233314 84.31,49.6943182 C83.8746833,50.270302 83.536682,50.9167293 83.31,51.6068182 C83.0043708,52.3356379 82.7796327,53.0972164 82.64,53.8772727 C82.5273785,54.6318333 82.4772006,55.3947659 82.49,56.1579545 C82.467641,56.8153904 82.5800501,57.470336 82.82,58.0806818 C81.36,59.5738636 82.04,56.3727273 81.68,55.2886364 C80.99,56.7715909 80.43,58.1522727 79.82,59.3795455 L78.87,61.2306818 C78.5687149,61.8454142 78.2348862,62.4428916 77.87,63.0204545 C76.4516804,65.540382 74.7756079,67.8990731 72.87,70.0568182 C73.87,71.0795455 73.1,71.1613636 73.17,72.5318182 L72.43,72.5931818 C72.8,72.5931818 72.84,73.9534091 73.95,73.1556818 C73.2474446,73.5736253 72.6214253,74.1135093 72.1,74.7511364 C71.7356969,75.2792778 71.4711522,75.8724222 71.32,76.5 L71.09,77.4204545 C71.01,77.7068182 70.92,78.0034091 70.81,78.3 C70.5861064,78.9323463 70.246753,79.5154171 69.81,80.0181818 L69.55,79.3125 C67.78,80.8568182 67.15,81.1227273 65.62,82.5238636 C61.8,83.3011364 68.32,80.6318182 66.53,79.7215909 L65.8,80.4988636 C65.8504783,79.3864154 66.0942854,78.2920537 66.52,77.2670455 C65.719041,78.3654969 64.6500496,79.2295461 63.42,79.7727273 C62.0542334,80.2268459 60.7754325,80.9188378 59.64,81.8181818 C59.64,81.3681818 60.37,80.6522727 61.11,79.9977273 C61.85,79.3431818 62.67,78.75 63,78.4636364 C62,79.0261364 60.28,80.4068182 59.91,79.8340909 L60.08,80.8568182 C58.24,81.8795455 59.99,79.9261364 59.13,79.6704545 C56.96,80.6931818 57.02,81.4090909 57.24,82.2170455 C57.46,83.025 57.79,83.8636364 55.76,84.7431818 Z" id="Shape"></path>
            <path d="M9.39,67.5818182 C9.67322942,68.0621591 10.008697,68.5081785 10.39,68.9113636 C10.09,68.4613636 9.76,68.0113636 9.39,67.5818182 Z" id="Shape"></path>
            <path d="M17.15,74.3522727 C17.2499342,74.3150171 17.3541093,74.2909591 17.46,74.2806818 C17.29,74.2090909 17.18,74.2295455 17.15,74.3522727 Z" id="Shape"></path>
            <path d="M18.54,74.2295455 C18.54,74.6488636 18.04,74.2295455 17.46,74.2295455 C18.07,74.5670455 19.37,75.5488636 18.54,74.2295455 Z" id="Shape"></path>
            <polygon id="Shape" points="85.35 41.9318182 85.43 43.2920455 85.31 41.2465909"></polygon>
            <path d="M85,37.9022727 L84.71,35.9284091 C84.62,35.4988636 84.55,35.0590909 84.44,34.6397727 C84.81,36.7363636 84.68,35.7954545 85,37.9022727 Z" id="Shape"></path>
            <path d="M84,32.4204545 L84.13,32.8602273 C84,32.4511364 83.94,32.3693182 84,32.4204545 Z" id="Shape"></path>
            <path d="M83.9,32.3488636 L83.66,31.6125 L84.35,34.1079545 L84.11,33.1465909 C84.11,33.1465909 84,32.5125 84,32.4204545 L83.72,31.4897727 L83.9,32.3488636 Z" id="Shape"></path>
            <path d="M83.3,30.2215909 L83.3,30.3954545 C83.306443,30.3376873 83.306443,30.2793582 83.3,30.2215909 Z" id="Shape"></path>
            <path d="M81.61,25.5681818 C81.8,26.0386364 81.31,25.1181818 81.22,25.0056818 C81.63,25.9056818 81.88,26.3659091 82.1,26.7954545 C82.32,27.225 82.46,27.675 82.74,28.5034091 C81.74,25.9977273 83.03,29.4238636 83.3,30.2625 C83.18,29.7613636 82.87,28.8204545 82.22,26.9181818 C82.22,26.8568182 82.14,26.7852273 82.1,26.7340909 C81.9175445,26.3541552 81.7540021,25.9650214 81.61,25.5681818 Z" id="Shape"></path>
            <path d="M76.08,16.7011364 L77.08,17.9079545 C77.14,18.0306818 77.54,18.6034091 77.91,19.1352273 C78.1627652,19.4353131 78.3563273,19.7826136 78.48,20.1579545 C78.95,20.9147727 79.06,21.0170455 79.48,21.6204545 C79.9,22.2238636 80.05,22.6431818 80.48,23.4102273 C79.61,21.7329545 79.23,21.1806818 78.95,20.6488636 C78.5254639,19.8258049 78.0266271,19.045136 77.46,18.3170455 C77.6562805,18.5387531 77.8367444,18.7745866 78,19.0227273 L76.79,17.2534091 C76.4667297,16.9630549 76.1719941,16.6410684 75.91,16.2920455 C75.59,15.9954545 75.49,15.8522727 76.08,16.7011364 Z" id="Shape"></path>
            <path d="M74.1,14.3181818 C75.24,15.5761364 75.95,16.2102273 75.45,15.525 C74.61,14.6454545 73.82,13.725 72.94,12.8965909 C73.7,13.6125 74.53,14.6147727 74.1,14.3181818 Z" id="Shape"></path>
            <path d="M72.36,12.4875 C71.7387581,11.72224 71.0304131,11.0355634 70.25,10.4420455 C71.69,11.7306818 70.88,11.25 72.36,12.4875 Z" id="Shape"></path>
            <path d="M62.53,5.22613636 C63.5131463,5.75236119 64.4618124,6.34337954 65.37,6.99545455 C65.77,7.5375 64,6.13636364 63,5.81931818 C64.1515331,6.53223282 65.3399365,7.18090808 66.56,7.7625 C67.25,8.19204545 68.29,8.91818182 69.09,9.43977273 C68.21,8.81590909 67.55,8.31477273 67.02,7.88522727 C66.49,7.45568182 66.02,7.18977273 65.61,6.8625 C65.2,6.53522727 64.81,6.3 64.34,6.01363636 C64.0821373,5.85392251 63.8149728,5.71047336 63.54,5.58409091 C63.27,5.49204545 62.93,5.35909091 62.53,5.22613636 Z" id="Shape"></path>
            <polygon id="Shape" points="68.07 8.94886364 68.42 9.1125 67.11 8.20227273"></polygon>
            <path d="M55.32,1.97386364 C54.4036138,1.57846371 53.443022,1.30022492 52.46,1.14545455 C51.3995071,1.06413915 50.3444434,0.920722118 49.3,0.715909091 C49.4864292,0.702290121 49.6735708,0.702290121 49.86,0.715909091 L47.94,0.439772727 L47.85,0.3375 C47.94,0.582954545 45.93,0.5625 45.07,0.705681818 C47.07,1.06363636 46.07,0.460227273 47.8,0.828409091 C47.37,0.920454545 47.06,1.06363636 46.66,1.13522727 C47.0785586,1.12452706 47.496047,1.08695311 47.91,1.02272727 L48.68,0.930681818 C49.95,1.10454545 49.55,1.17613636 49.68,1.27840909 C50.1962925,1.30684862 50.7137075,1.30684862 51.23,1.27840909 C51.9383652,1.24857992 52.6454473,1.36331078 53.31,1.61590909 C54.63,2.15795455 52.44,1.69772727 54.78,2.22954545 C54.25,1.92272727 54.84,2.08636364 55.67,2.34204545 C56.5,2.59772727 57.5,3.06818182 58,3.06818182 C58.83,3.41590909 59.5,3.73295455 59.91,3.95795455 C60.32,4.18295455 60.45,4.37727273 60.26,4.33636364 C60.26,4.10113636 61.8,4.63295455 63.06,5.19545455 L60.23,4.00909091 C59.97,3.76363636 59.67,3.58977273 59.38,3.36477273 C58.57,3.12954545 57.89,2.89431818 57.21,2.64886364 L56.21,2.26022727 L55.1,1.93295455 L55.32,1.97386364 Z" id="Shape"></path>
            <path d="M46.66,1.13522727 L46,1.13522727 C46.2191904,1.16252516 46.4408096,1.16252516 46.66,1.13522727 Z" id="Shape"></path>
            <polygon id="Shape" points="60.66 4.64318182 60 4.37727273 60.41 4.66363636"></polygon>
            <path d="M45.15,1.31931818 C45.54,1.31931818 45.69,1.2375 45.29,1.20681818 L44.68,1.35 L45.15,1.31931818 Z" id="Shape"></path>
            <polygon id="Shape" points="43.37 1.04318182 42.38 0.889772727 41.77 1.09431818"></polygon>
            <path d="M9.08,20.0454545 C9.94,19.0227273 9.6,18.9511364 9.48,18.5931818 C8.84,19.4011364 8.91,19.4625 9.05,19.4727273 C9.19,19.4829545 9.37,19.4318182 9.08,20.0454545 Z" id="Shape"></path>
            <path d="M3,44.8056818 C3.18,43.3431818 2.82,42.0136364 2.89,40.5511364 C2.58473684,41.9570624 2.62251462,43.4182195 3,44.8056818 Z" id="Shape"></path>
            <path d="M6.55,54.9818182 C6.29,54.7056818 6.08,54.2556818 6.21,54.9818182 L5,53.9488636 C5.17,56.0659091 6.17,55.1659091 6.55,54.9818182 Z" id="Shape"></path>
            <path d="M11.86,65.3931818 C11.4,64.9431818 10.97,64.4727273 10.52,64.0022727 L11.02,64.8613636 C10.4399796,64.6713298 9.89316369,64.3882559 9.4,64.0227273 C10.34,65.1477273 11.38,66.0784091 11.86,65.3931818 Z" id="Shape"></path>
            <path d="M8.34,62.5909091 C8.45480127,62.8042634 8.58870838,63.0062653 8.74,63.1943182 C8.74,62.9488636 8.78,62.775 8.34,62.5909091 Z" id="Shape"></path>
            <path d="M9.16,63.8590909 L9.4,64.0227273 C9.16666667,63.7431818 8.94666667,63.4670455 8.74,63.1943182 C8.7550668,63.4763235 8.91480833,63.7291611 9.16,63.8590909 Z" id="Shape"></path>
            <path d="M12.31,66.825 C12.9731333,67.6970625 13.6913332,68.5238275 14.46,69.3 C14.24,68.9522727 13.98,68.625 13.78,68.2772727 C13.12,68.4409091 13.17,66.8045455 12.31,66.825 Z" id="Shape"></path>
            <path d="M24.84,78.525 C24.84,78.7909091 24.84,79.0568182 24.84,79.3125 C25.8679617,79.7973141 26.9540136,80.1411949 28.07,80.3352273 C29.14,80.5602273 30.07,80.7238636 30.48,81.5215909 C29.78,80.7852273 32.37,81.2965909 30.14,80.2840909 C28.9,80.6420455 26.1,79.3329545 24.84,78.525 Z" id="Shape"></path>
            <path d="M31.62,82.5647727 C31.23,82.6465909 31.67,82.9943182 31.89,83.25 C32.62,83.5261364 33.52,83.3931818 33.19,82.9840909 C32.32,83.7818182 32.56,82.1863636 31.62,82.5647727 Z" id="Shape"></path>
            <path d="M41.32,84.1704545 C40.7,84.1704545 39.83,84.1704545 40.71,84.4465909 C42.59,84.4465909 42.14,83.5568182 43.07,83.0556818 C41.6,82.5238636 40.19,83.7 41.32,84.1704545 Z" id="Shape"></path>
            <path d="M57.6,88.2715909 C57.16,87.6681818 55.55,88.1488636 55.23,88.4965909 C55.9952321,88.2493959 56.8033535,88.1726755 57.6,88.2715909 Z" id="Shape"></path>
            <path d="M56.11,82.35 L55.57,82.35 L55.28,83.5875 C55.5810897,83.1927016 55.8582744,82.7794293 56.11,82.35 Z" id="Shape"></path>
            <path d="M65.72,76.7761364 L66.39,75.2931818 C65.8930917,75.7689676 65.3652146,76.2097511 64.81,76.6125 L65.72,76.7761364 Z" id="Shape"></path>
            <path d="M67.51,75.6204545 C67.99,75.2215909 68.51,74.8431818 68.94,74.4340909 C68.72,74.5056818 68.47,74.5465909 68.24,74.5977273 C67.4,74.9556818 68,75.2318182 67.51,75.6204545 Z" id="Shape"></path>
            <path d="M71.56,71.7954545 C71.4516601,71.9651676 71.2555378,72.0534226 71.06,72.0204545 L70.18,73.5545455 L71.56,71.7954545 Z" id="Shape"></path>
            <path d="M88.29,45.3579545 C89.16,45.8795455 88.71,43.9056818 88.94,43.3125 C88.72,43.2102273 87.49,44.4375 88.29,45.3579545 Z" id="Shape"></path>
        </g>
    </g>
</svg>